<svg width="4429" height="1889" xmlns="http://www.w3.org/2000/svg" xmlns:xlink="http://www.w3.org/1999/xlink" xml:space="preserve" overflow="hidden"><defs><filter id="fx0" x="-10%" y="-10%" width="120%" height="120%" filterUnits="userSpaceOnUse" primitiveUnits="userSpaceOnUse"><feComponentTransfer color-interpolation-filters="sRGB"><feFuncR type="discrete" tableValues="0 0"/><feFuncG type="discrete" tableValues="0 0"/><feFuncB type="discrete" tableValues="0 0"/><feFuncA type="linear" slope="0.4" intercept="0"/></feComponentTransfer><feGaussianBlur stdDeviation="3.21387 3.21387"/></filter><filter id="fx1" x="-10%" y="-10%" width="120%" height="120%" filterUnits="userSpaceOnUse" primitiveUnits="userSpaceOnUse"><feComponentTransfer color-interpolation-filters="sRGB"><feFuncR type="discrete" tableValues="0 0"/><feFuncG type="discrete" tableValues="0 0"/><feFuncB type="discrete" tableValues="0 0"/><feFuncA type="linear" slope="0.4" intercept="0"/></feComponentTransfer><feGaussianBlur stdDeviation="3.21387 3.21387"/></filter><filter id="fx2" x="-10%" y="-10%" width="120%" height="120%" filterUnits="userSpaceOnUse" primitiveUnits="userSpaceOnUse"><feComponentTransfer color-interpolation-filters="sRGB"><feFuncR type="discrete" tableValues="0 0"/><feFuncG type="discrete" tableValues="0 0"/><feFuncB type="discrete" tableValues="0 0"/><feFuncA type="linear" slope="0.4" intercept="0"/></feComponentTransfer><feGaussianBlur stdDeviation="3.21387 3.21387"/></filter><filter id="fx3" x="-10%" y="-10%" width="120%" height="120%" filterUnits="userSpaceOnUse" primitiveUnits="userSpaceOnUse"><feComponentTransfer color-interpolation-filters="sRGB"><feFuncR type="discrete" tableValues="0 0"/><feFuncG type="discrete" tableValues="0 0"/><feFuncB type="discrete" tableValues="0 0"/><feFuncA type="linear" slope="0.4" intercept="0"/></feComponentTransfer><feGaussianBlur stdDeviation="3.21387 3.21387"/></filter><clipPath id="clip4"><rect x="-11" y="352" width="4429" height="1969"/></clipPath><clipPath id="clip5"><rect x="74" y="71" width="358" height="121"/></clipPath><clipPath id="clip6"><rect x="0" y="0" width="539" height="291"/></clipPath><clipPath id="clip7"><rect x="79" y="71" width="958" height="149"/></clipPath><clipPath id="clip8"><rect x="0" y="0" width="1148" height="291"/></clipPath><clipPath id="clip9"><rect x="-4" y="-4" width="973" height="37"/></clipPath><clipPath id="clip10"><rect x="0" y="0" width="964" height="28"/></clipPath><clipPath id="clip11"><rect x="79" y="71" width="1258" height="146"/></clipPath><clipPath id="clip12"><rect x="0" y="0" width="1413" height="291"/></clipPath></defs><g clip-path="url(#clip4)" transform="translate(11 -352)"><path d="M1307.07 1864.66C1324.68 1864.66 1339.51 1867.64 1351.54 1873.58 1363.57 1879.52 1372.7 1888.33 1378.93 1900.01 1385.16 1911.68 1388.28 1925.97 1388.28 1942.87L1388.28 1944.16C1388.28 1956.33 1385.84 1969.51 1380.97 1983.69 1376.1 1997.87 1369.01 2012.41 1359.7 2027.3L1290.74 2132.79 1388.92 2132.79 1388.92 2180.27 1227.57 2180.27 1227.57 2136.44 1315.01 2006.46C1322.46 1994.57 1328.12 1983.37 1331.99 1972.84 1335.85 1962.31 1337.79 1952.82 1337.79 1944.37L1337.79 1943.08C1337.79 1933.06 1335.25 1925.43 1330.16 1920.2 1325.08 1914.97 1317.74 1912.36 1308.14 1912.36 1298.26 1912.36 1290.49 1915.69 1284.83 1922.35 1279.17 1929.01 1275.98 1938.79 1275.27 1951.68L1275.27 1954.68 1224.78 1954.68 1224.78 1951.68C1225.78 1932.91 1229.61 1917.05 1236.27 1904.09 1242.93 1891.13 1252.24 1881.31 1264.2 1874.65 1276.16 1867.99 1290.45 1864.66 1307.07 1864.66Z" stroke="#2F5597" stroke-width="7" stroke-linejoin="round" stroke-miterlimit="10" fill="#FFFFFF" fill-rule="evenodd"/><text fill="#000000" fill-opacity="0" font-family="Arial,Arial_MSFontService,sans-serif" font-size="315.605" x="1224.78" y="2140.82">2</text><path d="M2832.39 1892.57C2856.45 1892.57 2875.07 1899.02 2888.25 1911.91 2901.43 1924.8 2908.02 1942.99 2908.02 1966.48L2908.02 1991.4C2908.02 2002.86 2904.79 2013.24 2898.35 2022.55 2891.9 2031.86 2882.81 2039.38 2871.06 2045.11 2884.38 2048.84 2894.73 2056.03 2902.11 2066.7 2909.48 2077.38 2913.17 2090.59 2913.17 2106.34L2913.17 2132.98C2913.17 2149.46 2909.99 2163.56 2903.61 2175.31 2897.24 2187.05 2887.96 2196 2875.79 2202.16 2863.61 2208.32 2849.01 2211.4 2831.96 2211.4 2813.34 2211.4 2797.87 2208.29 2785.55 2202.06 2773.24 2195.83 2763.86 2186.3 2757.41 2173.48 2750.97 2160.66 2747.46 2144.3 2746.88 2124.39L2796.94 2124.39C2797.37 2133.56 2798.88 2141 2801.45 2146.73 2804.03 2152.46 2807.68 2156.69 2812.41 2159.41 2817.14 2162.13 2823.08 2163.49 2830.24 2163.49 2840.55 2163.49 2848.58 2160.63 2854.3 2154.9 2860.03 2149.17 2862.9 2141.15 2862.9 2130.84L2862.9 2104.62C2862.9 2093.45 2860.32 2084.79 2855.16 2078.63 2850.01 2072.47 2842.7 2069.39 2833.25 2069.39L2811.55 2069.39 2811.55 2022.12 2833.25 2022.12C2840.98 2022.12 2847 2019.48 2851.3 2014.18 2855.59 2008.88 2857.74 2001.5 2857.74 1992.05L2857.74 1967.77C2857.74 1959.03 2855.42 1952.3 2850.76 1947.57 2846.1 1942.85 2839.55 1940.48 2831.1 1940.48 2825.09 1940.48 2820.04 1941.92 2815.96 1944.78 2811.87 1947.65 2808.65 1952.01 2806.29 1957.89 2803.92 1963.76 2802.46 1971.35 2801.88 1980.66L2752.04 1980.66C2752.9 1960.46 2756.41 1943.89 2762.57 1930.92 2768.73 1917.96 2777.57 1908.33 2789.1 1902.03 2800.63 1895.73 2815.06 1892.57 2832.39 1892.57Z" stroke="#203864" stroke-width="7" stroke-linejoin="round" stroke-miterlimit="10" fill="#FFFFFF" fill-rule="evenodd"/><text fill="#000000" fill-opacity="0" font-family="Arial,Arial_MSFontService,sans-serif" font-size="318.828" x="2746.88" y="2171.55">3</text><path d="M77.2692 1867.89 125.609 1867.89 125.609 2180.27 76.4098 2180.27 76.4098 1922.89 33.8708 1945.23 33.8708 1893.24Z" stroke="#2F5597" stroke-width="7" stroke-linejoin="round" stroke-miterlimit="10" fill="#FFFFFF" fill-rule="evenodd"/><text fill="#000000" fill-opacity="0" font-family="Arial,Arial_MSFontService,sans-serif" font-size="312.383" x="33.8708" y="2141.22">1</text><text font-family="Bahnschrift SemiBold SemiCondensed,Bahnschrift SemiBold SemiCondensed_MSFontService,sans-serif" font-weight="600" font-stretch="semi-condensed" font-size="128" transform="matrix(1 0 0 1 170.228 1909)">Trust networks in <tspan font-size="128" x="0" y="154">MHATs</tspan><tspan font-size="92" x="357.5" y="154">(multi</tspan><tspan font-size="92" x="567.188" y="154">-</tspan><tspan font-size="92" x="605.573" y="154">human, </tspan></text><path d="M170.228 2076.83 338.228 2076.83 506.228 2076.83 506.228 2082.83 338.228 2082.83 170.228 2082.83Z" fill-rule="evenodd"/><text font-family="Bahnschrift SemiBold SemiCondensed,Bahnschrift SemiBold SemiCondensed_MSFontService,sans-serif" font-weight="600" font-stretch="semi-condensed" font-size="92" transform="matrix(1 0 0 1 170.228 2180)">agent teams)<tspan font-size="128" x="1252.84" y="-189">Study </tspan><tspan font-size="128" x="1565.08" y="-189">longitudinal</tspan><tspan font-size="128" x="2183.26" y="-189">trust </tspan></text><path d="M1735.07 2005.23 2029.07 2005.23 2323.07 2005.23 2323.07 2011.23 2029.07 2011.23 1735.07 2011.23Z" fill-rule="evenodd"/><text font-family="Bahnschrift SemiBold SemiCondensed,Bahnschrift SemiBold SemiCondensed_MSFontService,sans-serif" font-weight="600" font-stretch="semi-condensed" font-size="128" transform="matrix(1 0 0 1 1423.07 2145)">network evolution</text><rect x="2958" y="1870" width="1442" height="344" fill="#000000" fill-opacity="0.560784"/><g clip-path="url(#clip5)" filter="url(#fx0)" transform="translate(2908 1842)"><g clip-path="url(#clip6)"><path d="M0.75-90.875 15.875-90.875 31.3125-24.8125 46.8125-90.875 61.875-90.875 38.125 0 24.5 0ZM70.3958-90.6875 84.7083-90.6875 84.7083-76.375 70.3958-76.375ZM70.3958-64.875 84.7083-64.875 84.7083 0 70.3958 0ZM99.6042-64.875 114.229-64.875 114.229 0 99.6042 0ZM132.854-50C132.187-50.5833 131.354-51.0104 130.354-51.2812 129.354-51.5521 128.229-51.6875 126.979-51.6875 122.979-51.6875 119.865-50.5625 117.635-48.3125 115.406-46.0625 114.271-42.9583 114.229-39L112.917-53.5625C114.875-57.4375 117.385-60.4687 120.448-62.6562 123.51-64.8437 126.896-65.9375 130.604-65.9375 132.021-65.9375 133.302-65.7187 134.448-65.2812 135.594-64.8437 136.583-64.2083 137.417-63.375ZM164.531 0.3125C159.031 0.3125 155-1.13542 152.438-4.03125 149.875-6.92708 148.594-11.2083 148.594-16.875L148.594-83.75 162.906-83.75 162.906-18.5625C162.906-16.9375 163.25-15.6875 163.938-14.8125 164.625-13.9375 165.615-13.5 166.906-13.5L171.781-13.5 171.781 0.3125ZM142.156-64.875 171.781-64.875 171.781-52 142.156-52ZM216.844-64.875 231.031-64.875 231.031 0 216.844 0ZM199.281-21.3125C199.281-18.3958 200.042-16.1562 201.562-14.5937 203.083-13.0312 205.26-12.2708 208.094-12.3125 210.927-12.2708 213.094-13.0104 214.594-14.5312 216.094-16.0521 216.844-18.25 216.844-21.125L217.719-10.625C216.51-7.08333 214.677-4.27083 212.219-2.1875 209.76-0.104167 206.719 0.9375 203.094 0.9375 197.219 0.9375 192.729-0.947917 189.625-4.71875 186.521-8.48958 184.969-13.9167 184.969-21L184.969-64.875 199.281-64.875ZM277.969-44.0625C277.969-46.9792 277.146-49.2292 275.5-50.8125 273.854-52.3958 271.51-53.1875 268.469-53.1875 266.302-53.1875 264.365-52.6875 262.656-51.6875 260.948-50.6875 259.615-49.2917 258.656-47.5L247.094-51.6875C248.344-56.1875 250.844-59.6875 254.594-62.1875 258.344-64.6875 263.01-65.9375 268.594-65.9375 273.385-65.9375 277.49-65.0833 280.906-63.375 284.323-61.6667 286.927-59.2083 288.719-56 290.51-52.7917 291.406-48.9167 291.406-44.375L291.406 0 277.969 0ZM263.719 0.9375C257.427 0.9375 252.708-0.666667 249.562-3.875 246.417-7.08333 244.844-11.8958 244.844-18.3125 244.844-25.0625 246.656-30.1458 250.281-33.5625 253.906-36.9792 259.302-38.6875 266.469-38.6875L278.406-38.6875 279.281-27.125 266.719-27.125C263.885-27.125 261.76-26.3854 260.344-24.9062 258.927-23.4271 258.219-21.2292 258.219-18.3125 258.219-15.8542 258.948-14.0208 260.406-12.8125 261.865-11.6042 264.073-11 267.031-11 270.656-11 273.385-11.6146 275.219-12.8437 277.052-14.0729 277.969-15.9375 277.969-18.4375L279.219-10.9375C278.844-8.3125 277.969-6.125 276.594-4.375 275.219-2.625 273.438-1.30208 271.25-0.40625 269.062 0.489583 266.552 0.9375 263.719 0.9375ZM321.312-18.75C321.312-17.1667 321.708-15.9271 322.5-15.0312 323.292-14.1354 324.396-13.6875 325.812-13.6875L329.438-13.6875 329.438 0.0625 322.688 0.0625C317.729 0.0625 313.875-1.4375 311.125-4.4375 308.375-7.4375 307-11.6667 307-17.125L307-90.875 321.312-90.875Z" fill="#FFFFFF" transform="matrix(1 0 0 1 88.4148 177)"/></g></g><text fill="#FFFFFF" font-family="Bahnschrift SemiBold SemiCondensed,Bahnschrift SemiBold SemiCondensed_MSFontService,sans-serif" font-weight="600" font-stretch="semi-condensed" font-size="128" transform="matrix(1 0 0 1 2991.27 2014)">Virtual </text><g clip-path="url(#clip7)" filter="url(#fx1)" transform="translate(3271 1842)"><g clip-path="url(#clip8)"><path d="M39.0625-44.0625C39.0625-46.9792 38.2396-49.2292 36.5937-50.8125 34.9479-52.3958 32.6042-53.1875 29.5625-53.1875 27.3958-53.1875 25.4583-52.6875 23.75-51.6875 22.0417-50.6875 20.7083-49.2917 19.75-47.5L8.1875-51.6875C9.4375-56.1875 11.9375-59.6875 15.6875-62.1875 19.4375-64.6875 24.1042-65.9375 29.6875-65.9375 34.4792-65.9375 38.5833-65.0833 42-63.375 45.4167-61.6667 48.0208-59.2083 49.8125-56 51.6042-52.7917 52.5-48.9167 52.5-44.375L52.5 0 39.0625 0ZM24.8125 0.9375C18.5208 0.9375 13.8021-0.666667 10.6562-3.875 7.51042-7.08333 5.9375-11.8958 5.9375-18.3125 5.9375-25.0625 7.75-30.1458 11.375-33.5625 15-36.9792 20.3958-38.6875 27.5625-38.6875L39.5-38.6875 40.375-27.125 27.8125-27.125C24.9792-27.125 22.8542-26.3854 21.4375-24.9062 20.0208-23.4271 19.3125-21.2292 19.3125-18.3125 19.3125-15.8542 20.0417-14.0208 21.5-12.8125 22.9583-11.6042 25.1667-11 28.125-11 31.75-11 34.4792-11.6146 36.3125-12.8437 38.1458-14.0729 39.0625-15.9375 39.0625-18.4375L40.3125-10.9375C39.9375-8.3125 39.0625-6.125 37.6875-4.375 36.3125-2.625 34.5312-1.30208 32.3437-0.40625 30.1562 0.489583 27.6458 0.9375 24.8125 0.9375ZM68.0937-64.875 82.4687-64.875 82.4687 0 68.0937 0ZM100.656-42.375C100.656-45.6667 99.8646-48.1771 98.2812-49.9062 96.6979-51.6354 94.4062-52.5 91.4062-52.5 88.4896-52.5 86.2708-51.6562 84.75-49.9687 83.2292-48.2812 82.4687-45.8542 82.4687-42.6875L81.1562-53.6875C82.8229-57.6875 85.0312-60.7292 87.7812-62.8125 90.5312-64.8958 93.7187-65.9375 97.3437-65.9375 102.969-65.9375 107.312-64.0521 110.375-60.2812 113.437-56.5104 114.969-51.1458 114.969-44.1875L114.969 0 100.656 0ZM160.917-90.875 175.229-90.875 175.229 0 160.917 0ZM146.792 1.0625C143.042 1.0625 139.833 0.166667 137.167-1.625 134.5-3.41667 132.469-6.02083 131.073-9.4375 129.677-12.8542 128.979-16.9792 128.979-21.8125L128.979-42.875C128.979-47.7083 129.677-51.8646 131.073-55.3437 132.469-58.8229 134.49-61.4583 137.135-63.25 139.781-65.0417 142.958-65.9375 146.667-65.9375 149.917-65.9375 152.906-64.9271 155.635-62.9062 158.365-60.8854 160.562-58.0208 162.229-54.3125L160.917-43.0625C160.917-45.1042 160.573-46.8542 159.885-48.3125 159.198-49.7708 158.208-50.8854 156.917-51.6562 155.625-52.4271 154.042-52.8125 152.167-52.8125 149.333-52.8125 147.125-51.8646 145.542-49.9687 143.958-48.0729 143.167-45.4167 143.167-42L143.167-22.5C143.167-19.2083 143.958-16.6562 145.542-14.8437 147.125-13.0312 149.333-12.125 152.167-12.125 154.042-12.125 155.625-12.5 156.917-13.25 158.208-14 159.198-15.0937 159.885-16.5312 160.573-17.9687 160.917-19.7083 160.917-21.75L161.792-10.1875C160.583-6.72917 158.677-3.98958 156.073-1.96875 153.469 0.0520832 150.375 1.0625 146.792 1.0625ZM221.062-64.875 235.375-64.875 235.375 26.375 221.062 26.375ZM249.187 0.9375C245.729 0.9375 242.719-0.0312501 240.156-1.96875 237.594-3.90625 235.708-6.64583 234.5-10.1875L235.375-22.0625C235.375-19.9792 235.719-18.1979 236.406-16.7187 237.094-15.2396 238.094-14.1042 239.406-13.3125 240.719-12.5208 242.312-12.125 244.187-12.125 247.021-12.125 249.219-13.0833 250.781-15 252.344-16.9167 253.125-19.625 253.125-23.125L253.125-41.875C253.125-45.3333 252.344-48.0312 250.781-49.9687 249.219-51.9062 247.021-52.875 244.187-52.875 242.312-52.875 240.719-52.4896 239.406-51.7187 238.094-50.9479 237.094-49.8333 236.406-48.375 235.719-46.9167 235.375-45.1458 235.375-43.0625L234.062-54.0625C235.687-57.8125 237.854-60.7292 240.562-62.8125 243.271-64.8958 246.271-65.9375 249.562-65.9375 253.312-65.9375 256.521-65.0208 259.187-63.1875 261.854-61.3542 263.875-58.6979 265.25-55.2187 266.625-51.7396 267.312-47.5417 267.312-42.625L267.312-22.4375C267.312-17.5208 266.604-13.3125 265.187-9.8125 263.771-6.3125 261.708-3.64583 259-1.8125 256.292 0.0208333 253.021 0.9375 249.187 0.9375ZM281.792-90.875 296.104-90.875 296.104 0 281.792 0ZM314.354-42.3125C314.354-45.5625 313.562-48.0625 311.979-49.8125 310.396-51.5625 308.104-52.4375 305.104-52.4375 302.188-52.4375 299.958-51.6042 298.417-49.9375 296.875-48.2708 296.104-45.8542 296.104-42.6875L294.854-53.6875C296.521-57.6875 298.729-60.7292 301.479-62.8125 304.229-64.8958 307.417-65.9375 311.042-65.9375 316.667-65.9375 321.01-64.0521 324.073-60.2812 327.135-56.5104 328.667-51.1458 328.667-44.1875L328.667 0 314.354 0ZM390.49-64.875 367.115 15.1875C366.281 17.9792 365.073 20.25 363.49 22 361.906 23.75 359.885 25.0312 357.427 25.8437 354.969 26.6562 352.01 27.0625 348.552 27.0625L345.302 27.0625 345.302 13.1875 348.615 13.1875C350.948 13.1875 352.771 12.7083 354.083 11.75 355.396 10.7917 356.385 9.1875 357.052 6.9375L376.552-64.875ZM338.615-64.875 352.552-64.875 369.552-8.625 361.74 5.75ZM418.552 0.9375C414.219 0.9375 410.385 0.34375 407.052-0.84375 403.719-2.03125 400.958-3.79167 398.771-6.125 396.583-8.45833 395.01-11.3125 394.052-14.6875L394.052-14.6875 406.177-20.5625 406.177-20.5625C407.427-17.7292 409.146-15.5937 411.333-14.1562 413.521-12.7187 416.094-12 419.052-12 422.219-12 424.677-12.6354 426.427-13.9062 428.177-15.1771 429.052-16.9167 429.052-19.125 429.052-20.7917 428.562-22.1042 427.583-23.0625 426.604-24.0208 425.365-24.7396 423.865-25.2187 422.365-25.6979 420.26-26.2083 417.552-26.75 417.135-26.8333 416.719-26.9167 416.302-27 415.885-27.0833 415.469-27.1667 415.052-27.25 414.885-27.2917 414.74-27.3229 414.615-27.3437 414.49-27.3646 414.365-27.3958 414.24-27.4375 410.573-28.2708 407.49-29.2604 404.99-30.4062 402.49-31.5521 400.406-33.375 398.74-35.875 397.073-38.375 396.24-41.75 396.24-46 396.24-50.1667 397.125-53.7396 398.896-56.7187 400.667-59.6979 403.229-61.9687 406.583-63.5312 409.937-65.0937 413.948-65.875 418.615-65.875 422.615-65.875 426.146-65.3229 429.208-64.2187 432.271-63.1146 434.833-61.4896 436.896-59.3437 438.958-57.1979 440.469-54.5625 441.427-51.4375L441.427-51.4375 429.302-45.75 429.302-45.75C428.219-48.0833 426.76-49.875 424.927-51.125 423.094-52.375 420.969-53 418.552-53 415.719-53 413.531-52.4062 411.99-51.2187 410.448-50.0312 409.677-48.375 409.677-46.25 409.677-44.6667 410.187-43.4167 411.208-42.5 412.229-41.5833 413.5-40.9062 415.021-40.4687 416.542-40.0312 418.656-39.5417 421.365-39 421.531-39 421.687-38.9896 421.833-38.9687 421.979-38.9479 422.115-38.9167 422.24-38.875 422.323-38.8333 422.417-38.8125 422.521-38.8125 422.625-38.8125 422.719-38.7917 422.802-38.75 426.844-38 430.198-37.0937 432.865-36.0312 435.531-34.9687 437.792-33.1042 439.646-30.4375 441.5-27.7708 442.427-24.0625 442.427-19.3125 442.427-15.0625 441.49-11.4167 439.615-8.375 437.74-5.33333 435.021-3.02083 431.458-1.4375 427.896 0.145833 423.594 0.9375 418.552 0.9375ZM454.823-90.6875 469.135-90.6875 469.135-76.375 454.823-76.375ZM454.823-64.875 469.135-64.875 469.135 0 454.823 0ZM506.781 0.9375C501.656 0.9375 497.281-5.96046e-08 493.656-1.875 490.031-3.75 487.26-6.46875 485.344-10.0312 483.427-13.5937 482.469-17.8958 482.469-22.9375L482.469-41.75C482.469-46.8333 483.427-51.1875 485.344-54.8125 487.26-58.4375 490.031-61.1875 493.656-63.0625 497.281-64.9375 501.656-65.875 506.781-65.875 511.115-65.875 514.812-65.2396 517.875-63.9687 520.938-62.6979 523.396-60.7604 525.25-58.1562 527.104-55.5521 528.344-52.2917 528.969-48.375L528.969-48.375 515.781-44.125 515.781-44.125C515.198-46.9167 514.156-49.0104 512.656-50.4062 511.156-51.8021 509.219-52.5 506.844-52.5 503.635-52.5 501.156-51.5312 499.406-49.5937 497.656-47.6562 496.781-44.9375 496.781-41.4375L496.781-23.25C496.781-19.7917 497.656-17.125 499.406-15.25 501.156-13.375 503.635-12.4375 506.844-12.4375 509.219-12.4375 511.167-13.1146 512.688-14.4687 514.208-15.8229 515.24-17.8542 515.781-20.5625L515.781-20.5625 528.969-16.0625 528.969-16.0625C528.385-12.2292 527.167-9.05208 525.312-6.53125 523.458-4.01042 520.99-2.13542 517.906-0.90625 514.823 0.322917 511.115 0.9375 506.781 0.9375ZM571.302-44.0625C571.302-46.9792 570.479-49.2292 568.833-50.8125 567.188-52.3958 564.844-53.1875 561.802-53.1875 559.635-53.1875 557.698-52.6875 555.99-51.6875 554.281-50.6875 552.948-49.2917 551.99-47.5L540.427-51.6875C541.677-56.1875 544.177-59.6875 547.927-62.1875 551.677-64.6875 556.344-65.9375 561.927-65.9375 566.719-65.9375 570.823-65.0833 574.24-63.375 577.656-61.6667 580.26-59.2083 582.052-56 583.844-52.7917 584.74-48.9167 584.74-44.375L584.74 0 571.302 0ZM557.052 0.9375C550.76 0.9375 546.042-0.666667 542.896-3.875 539.75-7.08333 538.177-11.8958 538.177-18.3125 538.177-25.0625 539.99-30.1458 543.615-33.5625 547.24-36.9792 552.635-38.6875 559.802-38.6875L571.74-38.6875 572.615-27.125 560.052-27.125C557.219-27.125 555.094-26.3854 553.677-24.9062 552.26-23.4271 551.552-21.2292 551.552-18.3125 551.552-15.8542 552.281-14.0208 553.74-12.8125 555.198-11.6042 557.406-11 560.365-11 563.99-11 566.719-11.6146 568.552-12.8437 570.385-14.0729 571.302-15.9375 571.302-18.4375L572.552-10.9375C572.177-8.3125 571.302-6.125 569.927-4.375 568.552-2.625 566.771-1.30208 564.583-0.40625 562.396 0.489583 559.885 0.9375 557.052 0.9375ZM614.646-18.75C614.646-17.1667 615.042-15.9271 615.833-15.0312 616.625-14.1354 617.729-13.6875 619.146-13.6875L622.771-13.6875 622.771 0.0625 616.021 0.0625C611.062 0.0625 607.208-1.4375 604.458-4.4375 601.708-7.4375 600.333-11.6667 600.333-17.125L600.333-90.875 614.646-90.875ZM659.24-64.875 673.365-64.875 682.427-20.625 694.115-64.875 704.052-64.875 715.802-20.625 724.802-64.875 738.927-64.875 721.615 0 710.677 0 699.115-43.75 687.615 0 676.552 0ZM771.552 0.9375C766.635 0.9375 762.448 0.0208333 758.99-1.8125 755.531-3.64583 752.885-6.30208 751.052-9.78125 749.219-13.2604 748.302-17.4375 748.302-22.3125L748.302-43C748.302-47.8333 749.219-51.9687 751.052-55.4062 752.885-58.8437 755.531-61.4583 758.99-63.25 762.448-65.0417 766.635-65.9375 771.552-65.9375 776.427-65.9375 780.594-65.0417 784.052-63.25 787.51-61.4583 790.146-58.8437 791.958-55.4062 793.771-51.9687 794.677-47.8333 794.677-43L794.677-22.125C794.677-17.2917 793.771-13.1458 791.958-9.6875 790.146-6.22917 787.51-3.59375 784.052-1.78125 780.594 0.0312499 776.427 0.9375 771.552 0.9375ZM771.49-12.625C774.323-12.625 776.521-13.4896 778.083-15.2187 779.646-16.9479 780.427-19.3958 780.427-22.5625L780.427-42.5625C780.427-45.6875 779.646-48.1042 778.083-49.8125 776.521-51.5208 774.323-52.375 771.49-52.375 768.698-52.375 766.51-51.5208 764.927-49.8125 763.344-48.1042 762.552-45.6875 762.552-42.5625L762.552-22.5625C762.552-19.3958 763.333-16.9479 764.896-15.2187 766.458-13.4896 768.656-12.625 771.49-12.625ZM808.875-64.875 823.5-64.875 823.5 0 808.875 0ZM842.125-50C841.458-50.5833 840.625-51.0104 839.625-51.2812 838.625-51.5521 837.5-51.6875 836.25-51.6875 832.25-51.6875 829.135-50.5625 826.906-48.3125 824.677-46.0625 823.542-42.9583 823.5-39L822.188-53.5625C824.146-57.4375 826.656-60.4687 829.719-62.6562 832.781-64.8437 836.167-65.9375 839.875-65.9375 841.292-65.9375 842.573-65.7187 843.719-65.2812 844.865-64.8437 845.854-64.2083 846.688-63.375ZM870.74-18.75C870.74-17.1667 871.135-15.9271 871.927-15.0312 872.719-14.1354 873.823-13.6875 875.24-13.6875L878.865-13.6875 878.865 0.0625 872.115 0.0625C867.156 0.0625 863.302-1.4375 860.552-4.4375 857.802-7.4375 856.427-11.6667 856.427-17.125L856.427-90.875 870.74-90.875ZM920.031-90.875 934.344-90.875 934.344 0 920.031 0ZM905.906 1.0625C902.156 1.0625 898.948 0.166667 896.281-1.625 893.615-3.41667 891.583-6.02083 890.188-9.4375 888.792-12.8542 888.094-16.9792 888.094-21.8125L888.094-42.875C888.094-47.7083 888.792-51.8646 890.188-55.3437 891.583-58.8229 893.604-61.4583 896.25-63.25 898.896-65.0417 902.073-65.9375 905.781-65.9375 909.031-65.9375 912.021-64.9271 914.75-62.9062 917.479-60.8854 919.677-58.0208 921.344-54.3125L920.031-43.0625C920.031-45.1042 919.688-46.8542 919-48.3125 918.312-49.7708 917.323-50.8854 916.031-51.6562 914.74-52.4271 913.156-52.8125 911.281-52.8125 908.448-52.8125 906.24-51.8646 904.656-49.9687 903.073-48.0729 902.281-45.4167 902.281-42L902.281-22.5C902.281-19.2083 903.073-16.6562 904.656-14.8437 906.24-13.0312 908.448-12.125 911.281-12.125 913.156-12.125 914.74-12.5 916.031-13.25 917.323-14 918.312-15.0937 919-16.5312 919.688-17.9687 920.031-19.7083 920.031-21.75L920.906-10.1875C919.698-6.72917 917.792-3.98958 915.188-1.96875 912.583 0.0520832 909.49 1.0625 905.906 1.0625Z" fill="#FFFFFF" transform="matrix(1 0 0 1 88.071 177)"/></g></g><text fill="#FFFFFF" font-family="Bahnschrift SemiBold SemiCondensed,Bahnschrift SemiBold SemiCondensed_MSFontService,sans-serif" font-weight="600" font-stretch="semi-condensed" font-size="128" transform="matrix(1 0 0 1 3353.92 2014)">and physical world </text><g clip-path="url(#clip9)" filter="url(#fx2)" transform="translate(3348 2022)"><g clip-path="url(#clip10)"><path d="M11.4148 11.2125 325.415 11.2125 639.415 11.2125 953.415 11.2125 953.415 17.2125 639.415 17.2125 325.415 17.2125 11.4148 17.2125Z" fill="#FFFFFF" fill-rule="evenodd"/></g></g><path d="M3354.27 2028.07 3668.27 2028.07 3982.27 2028.07 4296.27 2028.07 4296.27 2034.07 3982.27 2034.07 3668.27 2034.07 3354.27 2034.07Z" fill="#FFFFFF" fill-rule="evenodd"/><g clip-path="url(#clip11)" filter="url(#fx3)" transform="translate(2908 1996)"><g clip-path="url(#clip12)"><path d="M31 0.9375C25.7917 0.9375 21.3542-0.0312501 17.6875-1.96875 14.0208-3.90625 11.2187-6.73958 9.28125-10.4687 7.34375-14.1979 6.375-18.7083 6.375-24L6.375-39.75C6.375-45.25 7.3125-49.9583 9.1875-53.875 11.0625-57.7917 13.7708-60.7708 17.3125-62.8125 20.8542-64.8542 25.1458-65.875 30.1875-65.875 35.0208-65.875 39.1771-64.7812 42.6562-62.5937 46.1354-60.4062 48.7708-57.2187 50.5625-53.0312 52.3542-48.8437 53.25-43.8125 53.25-37.9375L53.25-26.875 16.6875-26.875 16.6875-37.625 39.6875-37.625 39.6875-41.75C39.6875-45.25 38.8229-48 37.0937-50 35.3646-52 33.0625-53 30.1875-53 26.8958-53 24.3542-51.9062 22.5625-49.7187 20.7708-47.5312 19.875-44.4375 19.875-40.4375L19.875-23.625C19.875-19.9583 20.8229-17.1146 22.7187-15.0937 24.6146-13.0729 27.2917-12.0625 30.75-12.0625 33.125-12.0625 35.0937-12.6354 36.6562-13.7812 38.2187-14.9271 39.3542-16.5833 40.0625-18.75L40.0625-18.75 52.5-14.375 52.5-14.375C51.2917-9.33333 48.8542-5.52083 45.1875-2.9375 41.5208-0.354167 36.7917 0.9375 31 0.9375ZM84.1458-28.8125 63.2083-64.875 78.8333-64.875 93.2708-36.5625 115.583 0 100.083 0ZM83.7083-35.8125 90.9583-24.1875 77.5833 0 62.2083 0ZM87.7708-41.75 99.0208-64.875 114.583-64.875 94.4583-29.9375ZM125.958-64.875 140.271-64.875 140.271 26.375 125.958 26.375ZM154.083 0.9375C150.625 0.9375 147.615-0.0312501 145.052-1.96875 142.49-3.90625 140.604-6.64583 139.396-10.1875L140.271-22.0625C140.271-19.9792 140.615-18.1979 141.302-16.7187 141.99-15.2396 142.99-14.1042 144.302-13.3125 145.615-12.5208 147.208-12.125 149.083-12.125 151.917-12.125 154.115-13.0833 155.677-15 157.24-16.9167 158.021-19.625 158.021-23.125L158.021-41.875C158.021-45.3333 157.24-48.0312 155.677-49.9687 154.115-51.9062 151.917-52.875 149.083-52.875 147.208-52.875 145.615-52.4896 144.302-51.7187 142.99-50.9479 141.99-49.8333 141.302-48.375 140.615-46.9167 140.271-45.1458 140.271-43.0625L138.958-54.0625C140.583-57.8125 142.75-60.7292 145.458-62.8125 148.167-64.8958 151.167-65.9375 154.458-65.9375 158.208-65.9375 161.417-65.0208 164.083-63.1875 166.75-61.3542 168.771-58.6979 170.146-55.2187 171.521-51.7396 172.208-47.5417 172.208-42.625L172.208-22.4375C172.208-17.5208 171.5-13.3125 170.083-9.8125 168.667-6.3125 166.604-3.64583 163.896-1.8125 161.188 0.0208333 157.917 0.9375 154.083 0.9375ZM209.75 0.9375C204.542 0.9375 200.104-0.0312501 196.438-1.96875 192.771-3.90625 189.969-6.73958 188.031-10.4687 186.094-14.1979 185.125-18.7083 185.125-24L185.125-39.75C185.125-45.25 186.062-49.9583 187.938-53.875 189.812-57.7917 192.521-60.7708 196.062-62.8125 199.604-64.8542 203.896-65.875 208.938-65.875 213.771-65.875 217.927-64.7812 221.406-62.5937 224.885-60.4062 227.521-57.2187 229.312-53.0312 231.104-48.8437 232-43.8125 232-37.9375L232-26.875 195.438-26.875 195.438-37.625 218.438-37.625 218.438-41.75C218.437-45.25 217.573-48 215.844-50 214.115-52 211.812-53 208.938-53 205.646-53 203.104-51.9062 201.312-49.7187 199.521-47.5312 198.625-44.4375 198.625-40.4375L198.625-23.625C198.625-19.9583 199.573-17.1146 201.469-15.0937 203.365-13.0729 206.042-12.0625 209.5-12.0625 211.875-12.0625 213.844-12.6354 215.406-13.7812 216.969-14.9271 218.104-16.5833 218.812-18.75L218.812-18.75 231.25-14.375 231.25-14.375C230.042-9.33333 227.604-5.52083 223.938-2.9375 220.271-0.354167 215.542 0.9375 209.75 0.9375ZM246.271-64.875 260.896-64.875 260.896 0 246.271 0ZM279.521-50C278.854-50.5833 278.021-51.0104 277.021-51.2812 276.021-51.5521 274.896-51.6875 273.646-51.6875 269.646-51.6875 266.531-50.5625 264.302-48.3125 262.073-46.0625 260.937-42.9583 260.896-39L259.583-53.5625C261.542-57.4375 264.052-60.4687 267.115-62.6562 270.177-64.8437 273.562-65.9375 277.271-65.9375 278.687-65.9375 279.969-65.7187 281.115-65.2812 282.26-64.8437 283.25-64.2083 284.083-63.375ZM293.26-90.6875 307.573-90.6875 307.573-76.375 293.26-76.375ZM293.26-64.875 307.573-64.875 307.573 0 293.26 0ZM387.469-41.875C387.469-45.3333 386.667-47.9687 385.062-49.7812 383.458-51.5937 381.177-52.5 378.219-52.5 375.344-52.5 373.146-51.6042 371.625-49.8125 370.104-48.0208 369.344-45.4375 369.344-42.0625L367.219-53.25C368.927-57.3333 371.25-60.4687 374.188-62.6562 377.125-64.8437 380.406-65.9375 384.031-65.9375 387.781-65.9375 390.99-65.0729 393.656-63.3437 396.323-61.6146 398.354-59.0833 399.75-55.75 401.146-52.4167 401.844-48.4167 401.844-43.75L401.844 0 387.469 0ZM322.469-64.875 336.844-64.875 336.844 0 322.469 0ZM354.969-41.875C354.969-45.3333 354.188-47.9687 352.625-49.7812 351.062-51.5937 348.823-52.5 345.906-52.5 342.99-52.5 340.75-51.6562 339.188-49.9687 337.625-48.2812 336.844-45.8542 336.844-42.6875L335.531-53.75C337.24-57.7083 339.49-60.7292 342.281-62.8125 345.073-64.8958 348.26-65.9375 351.844-65.9375 355.552-65.9375 358.708-65.0833 361.312-63.375 363.917-61.6667 365.906-59.1875 367.281-55.9375 368.656-52.6875 369.344-48.7292 369.344-44.0625L369.344 0 354.969 0ZM440.635 0.9375C435.427 0.9375 430.99-0.0312501 427.323-1.96875 423.656-3.90625 420.854-6.73958 418.917-10.4687 416.979-14.1979 416.01-18.7083 416.01-24L416.01-39.75C416.01-45.25 416.948-49.9583 418.823-53.875 420.698-57.7917 423.406-60.7708 426.948-62.8125 430.49-64.8542 434.781-65.875 439.823-65.875 444.656-65.875 448.812-64.7812 452.292-62.5937 455.771-60.4062 458.406-57.2187 460.198-53.0312 461.99-48.8437 462.885-43.8125 462.885-37.9375L462.885-26.875 426.323-26.875 426.323-37.625 449.323-37.625 449.323-41.75C449.323-45.25 448.458-48 446.729-50 445-52 442.698-53 439.823-53 436.531-53 433.99-51.9062 432.198-49.7187 430.406-47.5312 429.51-44.4375 429.51-40.4375L429.51-23.625C429.51-19.9583 430.458-17.1146 432.354-15.0937 434.25-13.0729 436.927-12.0625 440.385-12.0625 442.76-12.0625 444.729-12.6354 446.292-13.7812 447.854-14.9271 448.99-16.5833 449.698-18.75L449.698-18.75 462.135-14.375 462.135-14.375C460.927-9.33333 458.49-5.52083 454.823-2.9375 451.156-0.354167 446.427 0.9375 440.635 0.9375ZM477.156-64.875 491.531-64.875 491.531 0 477.156 0ZM509.719-42.375C509.719-45.6667 508.927-48.1771 507.344-49.9062 505.76-51.6354 503.469-52.5 500.469-52.5 497.552-52.5 495.333-51.6562 493.812-49.9687 492.292-48.2812 491.531-45.8542 491.531-42.6875L490.219-53.6875C491.885-57.6875 494.094-60.7292 496.844-62.8125 499.594-64.8958 502.781-65.9375 506.406-65.9375 512.031-65.9375 516.375-64.0521 519.438-60.2812 522.5-56.5104 524.031-51.1458 524.031-44.1875L524.031 0 509.719 0ZM556.979 0.3125C551.479 0.3125 547.448-1.13542 544.885-4.03125 542.323-6.92708 541.042-11.2083 541.042-16.875L541.042-83.75 555.354-83.75 555.354-18.5625C555.354-16.9375 555.698-15.6875 556.385-14.8125 557.073-13.9375 558.062-13.5 559.354-13.5L564.229-13.5 564.229 0.3125ZM534.604-64.875 564.229-64.875 564.229-52 534.604-52ZM596.729 0.9375C592.396 0.9375 588.562 0.34375 585.229-0.84375 581.896-2.03125 579.135-3.79167 576.948-6.125 574.76-8.45833 573.188-11.3125 572.229-14.6875L572.229-14.6875 584.354-20.5625 584.354-20.5625C585.604-17.7292 587.323-15.5937 589.51-14.1562 591.698-12.7187 594.271-12 597.229-12 600.396-12 602.854-12.6354 604.604-13.9062 606.354-15.1771 607.229-16.9167 607.229-19.125 607.229-20.7917 606.74-22.1042 605.76-23.0625 604.781-24.0208 603.542-24.7396 602.042-25.2187 600.542-25.6979 598.438-26.2083 595.729-26.75 595.312-26.8333 594.896-26.9167 594.479-27 594.062-27.0833 593.646-27.1667 593.229-27.25 593.062-27.2917 592.917-27.3229 592.792-27.3437 592.667-27.3646 592.542-27.3958 592.417-27.4375 588.75-28.2708 585.667-29.2604 583.167-30.4062 580.667-31.5521 578.583-33.375 576.917-35.875 575.25-38.375 574.417-41.75 574.417-46 574.417-50.1667 575.302-53.7396 577.073-56.7187 578.844-59.6979 581.406-61.9687 584.76-63.5312 588.115-65.0937 592.125-65.875 596.792-65.875 600.792-65.875 604.323-65.3229 607.385-64.2187 610.448-63.1146 613.01-61.4896 615.073-59.3437 617.135-57.1979 618.646-54.5625 619.604-51.4375L619.604-51.4375 607.479-45.75 607.479-45.75C606.396-48.0833 604.938-49.875 603.104-51.125 601.271-52.375 599.146-53 596.729-53 593.896-53 591.708-52.4062 590.167-51.2187 588.625-50.0312 587.854-48.375 587.854-46.25 587.854-44.6667 588.365-43.4167 589.385-42.5 590.406-41.5833 591.677-40.9062 593.198-40.4687 594.719-40.0312 596.833-39.5417 599.542-39 599.708-39 599.865-38.9896 600.01-38.9687 600.156-38.9479 600.292-38.9167 600.417-38.875 600.5-38.8333 600.594-38.8125 600.698-38.8125 600.802-38.8125 600.896-38.7917 600.979-38.75 605.021-38 608.375-37.0937 611.042-36.0312 613.708-34.9687 615.969-33.1042 617.823-30.4375 619.677-27.7708 620.604-24.0625 620.604-19.3125 620.604-15.0625 619.667-11.4167 617.792-8.375 615.917-5.33333 613.198-3.02083 609.635-1.4375 606.073 0.145833 601.771 0.9375 596.729 0.9375ZM659.24-64.875 673.365-64.875 682.427-20.625 694.115-64.875 704.052-64.875 715.802-20.625 724.802-64.875 738.927-64.875 721.615 0 710.677 0 699.115-43.75 687.615 0 676.552 0ZM749.302-90.6875 763.615-90.6875 763.615-76.375 749.302-76.375ZM749.302-64.875 763.615-64.875 763.615 0 749.302 0ZM795.885 0.3125C790.385 0.3125 786.354-1.13542 783.792-4.03125 781.229-6.92708 779.948-11.2083 779.948-16.875L779.948-83.75 794.26-83.75 794.26-18.5625C794.26-16.9375 794.604-15.6875 795.292-14.8125 795.979-13.9375 796.969-13.5 798.26-13.5L803.135-13.5 803.135 0.3125ZM773.51-64.875 803.135-64.875 803.135-52 773.51-52ZM816.323-90.875 830.635-90.875 830.635 0 816.323 0ZM848.885-42.3125C848.885-45.5625 848.094-48.0625 846.51-49.8125 844.927-51.5625 842.635-52.4375 839.635-52.4375 836.719-52.4375 834.49-51.6042 832.948-49.9375 831.406-48.2708 830.635-45.8542 830.635-42.6875L829.385-53.6875C831.052-57.6875 833.26-60.7292 836.01-62.8125 838.76-64.8958 841.948-65.9375 845.573-65.9375 851.198-65.9375 855.542-64.0521 858.604-60.2812 861.667-56.5104 863.198-51.1458 863.198-44.1875L863.198 0 848.885 0ZM963.448-90.875 978.323-90.875 978.323 0 965.135 0 965.135-67.75 965.948-63.75 948.823-13.4375 938.948-13.4375 921.823-62.5 922.823-67.75 922.823 0 909.448 0 909.448-90.875 924.51-90.875 943.885-33.9375ZM1034.62-90.875 1048.94-90.875 1048.94 0 1034.62 0ZM994.812-90.875 1009.19-90.875 1009.19 0 994.812 0ZM1002.62-51.625 1043.06-51.625 1043.06-38.0625 1002.62-38.0625ZM1087.04-90.875 1097.92-90.875 1125.67 0 1110.6 0 1092.48-66.8125 1074.42 0 1059.29 0ZM1074.42-30.6875 1111.23-30.6875 1111.23-17.125 1074.42-17.125ZM1146.81-83.375 1161.12-83.375 1161.12 0 1146.81 0ZM1126.38-90.875 1181.5-90.875 1181.5-77.1875 1126.38-77.1875ZM1208.03 0.9375C1203.7 0.9375 1199.86 0.34375 1196.53-0.84375 1193.2-2.03125 1190.44-3.79167 1188.25-6.125 1186.06-8.45833 1184.49-11.3125 1183.53-14.6875L1183.53-14.6875 1195.66-20.5625 1195.66-20.5625C1196.91-17.7292 1198.62-15.5937 1200.81-14.1562 1203-12.7187 1205.57-12 1208.53-12 1211.7-12 1214.16-12.6354 1215.91-13.9062 1217.66-15.1771 1218.53-16.9167 1218.53-19.125 1218.53-20.7917 1218.04-22.1042 1217.06-23.0625 1216.08-24.0208 1214.84-24.7396 1213.34-25.2187 1211.84-25.6979 1209.74-26.2083 1207.03-26.75 1206.61-26.8333 1206.2-26.9167 1205.78-27 1205.36-27.0833 1204.95-27.1667 1204.53-27.25 1204.36-27.2917 1204.22-27.3229 1204.09-27.3437 1203.97-27.3646 1203.84-27.3958 1203.72-27.4375 1200.05-28.2708 1196.97-29.2604 1194.47-30.4062 1191.97-31.5521 1189.89-33.375 1188.22-35.875 1186.55-38.375 1185.72-41.75 1185.72-46 1185.72-50.1667 1186.6-53.7396 1188.38-56.7187 1190.15-59.6979 1192.71-61.9687 1196.06-63.5312 1199.42-65.0937 1203.43-65.875 1208.09-65.875 1212.09-65.875 1215.62-65.3229 1218.69-64.2187 1221.75-63.1146 1224.31-61.4896 1226.38-59.3437 1228.44-57.1979 1229.95-54.5625 1230.91-51.4375L1230.91-51.4375 1218.78-45.75 1218.78-45.75C1217.7-48.0833 1216.24-49.875 1214.41-51.125 1212.57-52.375 1210.45-53 1208.03-53 1205.2-53 1203.01-52.4062 1201.47-51.2187 1199.93-50.0312 1199.16-48.375 1199.16-46.25 1199.16-44.6667 1199.67-43.4167 1200.69-42.5 1201.71-41.5833 1202.98-40.9062 1204.5-40.4687 1206.02-40.0312 1208.14-39.5417 1210.84-39 1211.01-39 1211.17-38.9896 1211.31-38.9687 1211.46-38.9479 1211.59-38.9167 1211.72-38.875 1211.8-38.8333 1211.9-38.8125 1212-38.8125 1212.1-38.8125 1212.2-38.7917 1212.28-38.75 1216.32-38 1219.68-37.0937 1222.34-36.0312 1225.01-34.9687 1227.27-33.1042 1229.12-30.4375 1230.98-27.7708 1231.91-24.0625 1231.91-19.3125 1231.91-15.0625 1230.97-11.4167 1229.09-8.375 1227.22-5.33333 1224.5-3.02083 1220.94-1.4375 1217.38 0.145833 1213.07 0.9375 1208.03 0.9375Z" fill="#FFFFFF" transform="matrix(1 0 0 1 88.4148 177)"/></g></g><text fill="#FFFFFF" font-family="Bahnschrift SemiBold SemiCondensed,Bahnschrift SemiBold SemiCondensed_MSFontService,sans-serif" font-weight="600" font-stretch="semi-condensed" font-size="128" transform="matrix(1 0 0 1 2991.27 2168)">experiments with MHATs<tspan fill="#000000" font-size="110" x="-198.239" y="-1674">Across </tspan></text><path d="M2793.16 499.475 2891.83 499.475 2990.49 499.475 3089.16 499.475 3089.16 502.475 2990.49 502.475 2891.83 502.475 2793.16 502.475Z" fill-rule="evenodd"/><text font-family="Bahnschrift SemiBold SemiCondensed,Bahnschrift SemiBold SemiCondensed_MSFontService,sans-serif" font-weight="600" font-stretch="semi-condensed" font-size="110" transform="matrix(1 0 0 1 2708.53 626)">timescales</text><path d="M2708.16 631.475 2824.66 631.475 2941.16 631.475 3057.66 631.475 3174.16 631.475 3174.16 634.475 3057.66 634.475 2941.16 634.475 2824.66 634.475 2708.16 634.475Z" fill-rule="evenodd"/></g></svg>